<?xml version="1.0" encoding="UTF-8"?>
<svg width="256px" height="64px" viewBox="0 0 256 64" version="1.1" xmlns="http://www.w3.org/2000/svg" xmlns:xlink="http://www.w3.org/1999/xlink">
    <!-- Generator: Sketch 45.2 (43514) - http://www.bohemiancoding.com/sketch -->
    <title>mikado logo@1x</title>
    <desc>Created with Sketch.</desc>
    <defs></defs>
    <g id="Mikado-logo" stroke="none" stroke-width="1" fill="none" fill-rule="evenodd">
        <g id="mikado-logo">
            <path d="M72,46.5068493 L77.5769784,46.5068493 L77.5769784,31.9178082 L77.2079137,25.6712329 L84.2611511,46.5068493 L90.9453237,46.5068493 L98.9417266,25.9589041 L98.7776978,31.9178082 L98.7776978,46.5068493 L104.395683,46.5068493 L104.395683,17.4520548 L97.547482,17.4520548 L87.7467626,41.8630137 L79.1352518,17.4520548 L72,17.4520548 L72,46.5068493 Z M111.817986,46.5068493 L117.394964,46.5068493 L117.394964,17.4520548 L111.817986,17.4520548 L111.817986,46.5068493 Z M142.040288,46.5068493 L149.216547,46.5068493 L136.668345,30.9726027 L148.519424,17.4520548 L141.384173,17.4520548 L130.558273,30.6027397 L130.558273,31.260274 L142.040288,46.5068493 Z M124.858273,46.5068493 L130.435252,46.5068493 L130.435252,17.4520548 L124.858273,17.4520548 L124.858273,46.5068493 Z M149.954676,46.5068493 L161.272662,17.4520548 L168.530935,17.4520548 L178.577698,46.5068493 L172.754676,46.5068493 L169.556115,37.0958904 L159.140288,37.0958904 L155.572662,46.5068493 L149.954676,46.5068493 Z M160.698561,32.9452055 L168.202878,32.9452055 L164.676259,21.0273973 L160.698561,32.9452055 Z M182.760432,46.5068493 L182.760432,17.4520548 L192.151079,17.4520548 C201.910791,17.4520548 208.758993,22.0136986 208.758993,31.8767123 C208.758993,41.9863014 202.525899,46.5068493 192.397122,46.5068493 L182.760432,46.5068493 Z M188.296403,42.0684932 L192.848201,42.0684932 C199.819424,42.0684932 203.141007,38.6986301 203.141007,32.2876712 C203.141007,25.3013699 199.286331,21.890411 192.028058,21.890411 L188.296403,21.890411 L188.296403,42.0684932 Z M227.499281,47 C217.780576,47 212.695683,41.0821918 212.695683,31.9178082 C212.695683,22.7945205 218.764748,17 228.278417,17 C238.366187,17 243,23.4109589 243,32 C243,41.1232877 237.423022,47 227.499281,47 Z M227.622302,42.5205479 C234.511511,42.5205479 237.3,37.9178082 237.3,31.9589041 C237.3,25.9589041 234.265468,21.4794521 227.909353,21.4794521 C221.266187,21.4794521 218.354676,25.9589041 218.354676,31.8767123 C218.354676,37.6712329 221.184173,42.5205479 227.622302,42.5205479 Z" id="MIKADO-Copy-5" fill="#192639"></path>
            <g id="Page-1" transform="translate(13.000000, 17.000000)">
                <polygon id="Fill-1" fill="#EA3571" points="6.96555819 0 0 6.97992701 6.96555819 13.959854 13.9311164 6.97992701"></polygon>
                <polygon id="Fill-2" fill="#01AFC4" points="0 23.020073 6.96555819 30 13.9311164 23.020073 6.96555819 16.040146"></polygon>
                <polygon id="Fill-3" fill="#01AFC4" points="21.9619952 15.0273723 14.9964371 22.0072993 8.03087886 15.0273723 14.9964371 8.04744526"></polygon>
                <polygon id="Fill-4" fill="#01AFC4" points="22.9726841 0 16.0071259 6.97992701 22.9726841 13.959854 29.9382423 6.97992701"></polygon>
                <polygon id="Fill-5" fill="#EA3571" points="16.0071259 23.020073 22.9726841 30 29.9382423 23.020073 22.9726841 16.040146"></polygon>
                <polygon id="Fill-6" fill="#EA3571" points="37.9691211 15.0273723 31.0035629 22.0072993 24.0380048 15.0273723 31.0035629 8.04744526"></polygon>
                <polygon id="Fill-7" fill="#EA3571" points="39.0344418 0 32.0688836 6.97992701 39.0344418 13.959854 46 6.97992701"></polygon>
                <polygon id="Fill-8" fill="#01AFC4" points="32.0688836 23.020073 39.0344418 30 46 23.020073 39.0344418 16.040146"></polygon>
            </g>
        </g>
    </g>
</svg>
